<svg width="21" height="21" viewBox="0 0 21 21" fill="none" xmlns="http://www.w3.org/2000/svg">
<path d="M3.621 10.4523C2.83098 9.07475 2.44952 7.94989 2.21951 6.80967C1.87933 5.12331 2.65782 3.476 3.94747 2.42489C4.49252 1.98064 5.11734 2.13242 5.43965 2.71066L6.1673 4.01608C6.74406 5.0508 7.03243 5.56815 6.97524 6.11665C6.91804 6.66515 6.52912 7.11188 5.75129 8.00533L3.621 10.4523ZM3.621 10.4523C5.22007 13.2406 7.72951 15.7514 10.521 17.3523M10.521 17.3523C11.8986 18.1423 13.0234 18.5238 14.1636 18.7538C15.85 19.094 17.4973 18.3155 18.5484 17.0258C18.9927 16.4808 18.8409 15.856 18.2627 15.5337L16.9572 14.806C15.9225 14.2293 15.4052 13.9409 14.8567 13.9981C14.3082 14.0553 13.8614 14.4442 12.968 15.222L10.521 17.3523Z" stroke="#CF909F" stroke-width="1.5" stroke-linejoin="round"/>
</svg>
