<svg width="101" height="100" viewBox="0 0 101 100" fill="none" xmlns="http://www.w3.org/2000/svg">
<circle cx="50.4727" cy="50" r="50" fill="#FF6969"/>
<path fill-rule="evenodd" clip-rule="evenodd" d="M63.3113 37.6887C64.1046 38.4819 64.1046 39.7681 63.3113 40.5613L40.5613 63.3113C39.7681 64.1046 38.4819 64.1046 37.6887 63.3113C36.8954 62.5181 36.8954 61.2319 37.6887 60.4387L60.4387 37.6887C61.2319 36.8954 62.5181 36.8954 63.3113 37.6887Z" fill="white"/>
<path fill-rule="evenodd" clip-rule="evenodd" d="M37.6887 37.6887C38.4819 36.8954 39.7681 36.8954 40.5613 37.6887L63.3113 60.4387C64.1046 61.2319 64.1046 62.5181 63.3113 63.3113C62.5181 64.1046 61.2319 64.1046 60.4387 63.3113L37.6887 40.5613C36.8954 39.7681 36.8954 38.4819 37.6887 37.6887Z" fill="white"/>
</svg>
