<svg width="21" height="20" viewBox="0 0 21 20" fill="none" xmlns="http://www.w3.org/2000/svg">
<path d="M12.5812 7.89185L8.36451 12.1085C7.80535 11.5494 7.49121 10.791 7.49121 10.0002C7.49121 9.60863 7.56833 9.22091 7.71817 8.85917C7.86802 8.49742 8.08764 8.16873 8.36451 7.89185C8.64138 7.61498 8.97007 7.39536 9.33182 7.24552C9.69357 7.09568 10.0813 7.01855 10.4728 7.01855C11.2636 7.01855 12.022 7.33269 12.5812 7.89185Z" stroke="#CF909F" stroke-width="1.5" stroke-linecap="round" stroke-linejoin="round"/>
<path d="M15.3215 4.80742C13.8632 3.70742 12.1965 3.10742 10.4715 3.10742C7.52988 3.10742 4.78822 4.84076 2.87988 7.84075C2.12988 9.01575 2.12988 10.9908 2.87988 12.1658C3.53822 13.1991 4.30488 14.0908 5.13822 14.8074M7.48822 16.2741C8.43822 16.6741 9.44655 16.8908 10.4715 16.8908C13.4132 16.8908 16.1549 15.1574 18.0632 12.1574C18.8132 10.9824 18.8132 9.00742 18.0632 7.83242C17.7882 7.39909 17.4882 6.99075 17.1799 6.60742" stroke="#CF909F" stroke-width="1.5" stroke-linecap="round" stroke-linejoin="round"/>
<path d="M13.398 10.5837C13.2851 11.165 13.0011 11.6993 12.5823 12.118C12.1636 12.5367 11.6293 12.8208 11.048 12.9337M8.36465 12.1087L2.13965 18.3337M18.8063 1.66699L12.5813 7.89199" stroke="#CF909F" stroke-width="1.5" stroke-linecap="round" stroke-linejoin="round"/>
</svg>
