<svg width="48" height="48" viewBox="0 0 48 48" fill="none" xmlns="http://www.w3.org/2000/svg">
<circle cx="24" cy="24" r="24" fill="#FFECD7"/>
<rect width="24" height="24" transform="translate(12 12)" fill="#FFECD7"/>
<path fill-rule="evenodd" clip-rule="evenodd" d="M23.9998 13C23.2796 13 22.8376 13.5264 22.5503 13.9799C22.2554 14.4452 21.9512 15.1155 21.5901 15.911L21.5901 15.911C21.4499 16.2199 21.3138 16.5323 21.1776 16.8452C20.8605 17.5733 20.5422 18.3041 20.1675 18.9996C19.8817 19.5303 19.3768 19.833 18.7613 19.6145C18.5293 19.5322 18.2372 19.403 17.7962 19.2069C17.69 19.1598 17.5793 19.1071 17.4649 19.0528C16.8585 18.7646 16.1522 18.4289 15.5126 18.6119C14.8839 18.7918 14.4364 19.3143 14.2894 19.9253C14.2001 20.2967 14.278 20.6776 14.3692 21.0055C14.4635 21.3445 14.617 21.7693 14.8021 22.2816L14.8022 22.2816L16.4945 26.9652L16.4945 26.9652L16.4945 26.9653C16.8395 27.9202 17.118 28.691 17.4066 29.2893C17.9966 30.5128 18.9269 31.2598 20.2897 31.4248C20.9107 31.5 21.6724 31.5 22.5984 31.5H25.4012C26.3272 31.5 27.089 31.5 27.7099 31.4248C29.0728 31.2598 30.0031 30.5128 30.5931 29.2893C30.8816 28.691 31.1601 27.9202 31.5052 26.9651L33.1975 22.2816L33.1975 22.2815C33.3826 21.7693 33.5361 21.3445 33.6304 21.0055C33.7216 20.6776 33.7995 20.2967 33.7102 19.9253C33.5633 19.3143 33.1158 18.7918 32.487 18.6119C31.8539 18.4308 31.15 18.7634 30.5495 19.0471C30.4411 19.0984 30.3361 19.148 30.2355 19.1927C30.174 19.22 30.1126 19.2476 30.0512 19.2752C29.7834 19.3957 29.5147 19.5164 29.2383 19.6145C28.6228 19.833 28.1179 19.5303 27.8321 18.9996C27.4574 18.3041 27.1392 17.5733 26.8221 16.8451C26.6858 16.5323 26.5497 16.2199 26.4095 15.911L26.4095 15.911C26.0485 15.1155 25.7442 14.4452 25.4494 13.9799C25.162 13.5264 24.72 13 23.9998 13ZM23.999 25C23.1743 25 22.5057 25.6716 22.5057 26.5C22.5057 27.3284 23.1743 28 23.999 28H24.0124C24.8372 28 25.5057 27.3284 25.5057 26.5C25.5057 25.6716 24.8372 25 24.0124 25H23.999Z" fill="#FEB560"/>
<path fill-rule="evenodd" clip-rule="evenodd" d="M18 34C18 33.4477 18.4477 33 19 33H29C29.5523 33 30 33.4477 30 34C30 34.5523 29.5523 35 29 35H19C18.4477 35 18 34.5523 18 34Z" fill="#FEB560"/>
</svg>
