<?xml version="1.0" standalone="no"?>
<!DOCTYPE svg PUBLIC "-//W3C//DTD SVG 20010904//EN"
 "http://www.w3.org/TR/2001/REC-SVG-20010904/DTD/svg10.dtd">
<svg version="1.0" xmlns="http://www.w3.org/2000/svg"
 width="779.000000pt" height="260.000000pt" viewBox="0 0 779.000000 260.000000"
 preserveAspectRatio="xMidYMid meet">

<g transform="translate(0.000000,260.000000) scale(0.100000,-0.100000)"
fill="#000000" stroke="none">
<path d="M720 1839 c-48 -13 -150 -51 -150 -55 0 -2 12 -26 28 -54 16 -30 34
-50 45 -50 10 0 49 16 87 36 62 33 75 36 126 32 70 -6 104 -37 104 -96 0 -71
-54 -123 -149 -145 -35 -8 -67 -19 -71 -23 -12 -12 19 -104 37 -111 8 -3 41 2
74 11 32 9 70 16 83 16 49 0 97 -102 95 -202 -2 -118 -74 -186 -185 -175 -106
11 -194 80 -255 199 -30 60 -69 187 -69 226 0 19 -4 23 -17 17 -10 -4 -31 -12
-46 -17 -26 -10 -28 -14 -22 -44 9 -52 71 -199 116 -275 53 -92 138 -182 201
-213 65 -33 171 -36 233 -7 53 24 129 93 145 131 13 32 10 189 -5 224 -7 17
-5 18 16 11 13 -5 60 -10 104 -10 l80 -2 6 -99 c4 -54 7 -145 8 -201 l1 -101
57 -41 c46 -33 60 -38 71 -28 13 10 14 78 10 475 l-6 463 26 -3 c27 -3 22 14
141 -443 81 -308 132 -499 136 -505 2 -4 35 -6 72 -6 l68 1 13 40 c18 54 221
785 236 849 12 48 -2 92 160 -499 53 -192 100 -359 105 -371 8 -18 17 -21 71
-19 33 2 63 5 66 8 3 3 14 36 24 74 10 37 71 259 136 493 64 234 119 438 122
453 l4 28 -68 -3 -68 -3 -14 -60 c-8 -33 -52 -213 -98 -400 -45 -187 -86 -357
-89 -378 -10 -54 -22 -54 -30 1 -9 66 -58 263 -101 412 -19 69 -54 193 -77
275 l-42 150 -86 3 -86 3 -41 -148 c-22 -81 -54 -197 -72 -258 -55 -193 -98
-348 -110 -405 -24 -107 -24 -108 -75 125 -15 66 -40 174 -56 240 -42 178 -65
281 -84 368 l-17 77 -258 0 c-150 0 -261 -4 -265 -9 -3 -5 2 -28 11 -50 l16
-41 94 0 94 0 0 -132 c0 -181 -5 -203 -44 -220 -17 -7 -63 -13 -103 -13 -76 0
-106 13 -145 66 -19 25 -19 25 16 78 44 65 46 107 10 180 -60 119 -212 185
-344 150z"/>
<path d="M3704 1733 c-15 -43 -36 -97 -46 -120 -10 -24 -31 -77 -47 -118 l-29
-75 38 0 c36 0 39 2 52 43 l15 42 85 3 86 3 17 -46 c17 -43 20 -45 56 -45 l39
0 -26 58 c-14 31 -39 93 -55 137 -17 44 -42 106 -56 138 -25 55 -27 57 -63 57
l-38 0 -28 -77z m99 -83 c8 -25 18 -53 22 -62 6 -16 0 -18 -55 -18 -55 0 -61
2 -55 18 5 9 17 43 29 74 24 65 33 63 59 -12z"/>
<path d="M4020 1616 l0 -196 35 0 35 0 0 75 0 75 33 1 c17 1 36 1 41 0 29 -6
108 24 126 46 37 47 19 159 -27 178 -10 3 -69 9 -130 12 l-113 6 0 -197z m200
114 c25 -25 26 -62 3 -83 -19 -16 -37 -20 -95 -18 l-38 1 0 60 0 60 55 0 c42
0 60 -5 75 -20z"/>
<path d="M4391 1615 l2 -195 31 0 31 0 0 118 c0 64 4 119 9 122 9 4 80 -103
136 -202 17 -33 25 -38 55 -38 l35 0 0 195 0 195 -30 0 -30 0 0 -130 c0 -118
-8 -156 -24 -115 -3 9 -38 67 -77 130 -69 110 -73 115 -106 115 l-34 0 2 -195z"/>
<path d="M4866 1718 c-41 -109 -66 -173 -95 -245 l-21 -53 38 0 c35 0 39 3 52
43 l15 42 86 3 87 3 13 -46 c13 -43 15 -45 51 -45 21 0 38 4 38 9 0 5 -10 31
-21 58 -12 26 -46 109 -75 183 l-52 135 -40 3 -40 3 -36 -93z m104 -65 c14
-37 27 -71 28 -75 2 -5 -23 -8 -56 -8 l-61 0 26 75 c13 41 28 75 31 75 4 0 18
-30 32 -67z"/>
<path d="M5309 1708 c15 -57 36 -145 46 -195 l19 -93 43 0 c28 0 43 4 43 13
-1 27 75 276 81 269 4 -4 19 -54 34 -112 43 -175 41 -170 85 -170 44 0 36 -19
86 200 19 85 37 163 40 173 4 14 -1 17 -30 17 l-34 0 -16 -67 c-8 -38 -21 -98
-28 -135 -17 -94 -25 -91 -48 17 -6 28 -20 80 -31 118 l-21 67 -42 0 -42 0
-29 -122 c-16 -68 -33 -129 -39 -137 -7 -9 -18 17 -38 100 -15 63 -28 124 -28
137 0 19 -5 22 -39 22 l-39 0 27 -102z"/>
<path d="M5886 1703 c-22 -59 -52 -136 -68 -171 -15 -35 -31 -74 -34 -88 -6
-22 -3 -24 29 -24 33 0 37 3 53 45 l17 46 85 -3 85 -3 15 -42 c13 -41 16 -43
53 -43 l39 0 -15 38 c-9 20 -21 48 -27 62 -6 14 -34 84 -62 155 l-51 130 -40
3 -40 3 -39 -108z m108 -50 c10 -32 21 -64 23 -70 4 -10 -11 -13 -55 -13 l-60
0 24 58 c13 31 24 63 24 70 0 6 6 12 13 12 7 0 21 -26 31 -57z"/>
<path d="M6258 1794 c-35 -18 -48 -43 -48 -89 0 -54 38 -87 124 -109 72 -18
95 -35 96 -72 0 -28 -20 -44 -62 -50 -40 -6 -79 13 -95 47 -10 21 -18 25 -43
21 -34 -5 -37 -19 -15 -62 17 -33 50 -54 67 -44 7 4 8 3 4 -4 -5 -9 12 -12 63
-12 74 0 104 7 95 21 -3 5 2 6 10 3 20 -8 46 45 46 95 0 58 -29 84 -128 116
-84 28 -108 47 -91 77 22 39 121 29 134 -13 8 -23 63 -27 71 -5 9 23 -27 74
-59 86 -43 15 -138 12 -169 -6z"/>
<path d="M6580 1615 l0 -195 35 0 34 0 3 88 3 87 80 0 80 0 3 -87 3 -88 34 0
35 0 0 195 0 195 -35 0 -35 0 0 -80 0 -80 -85 0 -85 0 0 80 0 80 -35 0 -35 0
0 -195z"/>
<path d="M5515 1151 c-73 -18 -118 -66 -134 -142 -28 -131 33 -243 144 -263
72 -14 162 32 184 95 10 29 9 31 -25 45 -37 16 -54 12 -54 -12 0 -27 -38 -54
-78 -54 -28 0 -45 7 -63 26 -21 23 -24 35 -24 104 0 69 3 81 24 104 37 39 101
37 133 -4 22 -28 26 -29 61 -19 21 5 36 13 34 17 -22 47 -36 66 -61 81 -37 23
-100 32 -141 22z"/>
<path d="M4080 1140 c0 -5 -31 -91 -70 -189 -38 -99 -70 -185 -70 -191 0 -7
16 -10 42 -8 39 3 42 5 56 46 l14 43 81 -3 80 -3 16 -42 c15 -42 16 -43 59
-43 38 0 43 3 38 18 -4 9 -39 99 -79 199 l-72 183 -47 0 c-27 0 -48 -4 -48
-10z m74 -152 c10 -29 21 -59 23 -65 4 -10 -9 -13 -47 -13 -38 0 -51 3 -47 13
2 6 13 36 23 65 10 28 21 52 24 52 3 0 14 -24 24 -52z"/>
<path d="M4750 1118 c-23 -16 -36 -33 -38 -51 -2 -15 -10 -27 -18 -27 -9 0
-14 -11 -14 -30 0 -20 5 -30 15 -30 12 0 15 -15 15 -74 0 -40 3 -88 6 -105 9
-41 51 -64 100 -55 32 6 35 9 32 38 -2 25 -7 31 -28 31 -24 0 -25 2 -28 83 -3
82 -3 82 23 82 21 0 25 5 25 30 0 25 -4 30 -24 30 -23 0 -25 4 -28 51 l-3 51
-35 -24z"/>
<path d="M4988 1040 c-68 -12 -108 -67 -108 -148 0 -90 59 -146 154 -145 82 1
140 65 140 155 0 97 -80 157 -186 138z m75 -73 c38 -27 38 -117 0 -144 -48
-36 -103 2 -103 72 0 70 54 108 103 72z"/>
<path d="M5843 1039 c-31 -9 -63 -42 -63 -65 0 -22 52 -23 82 -1 23 17 31 19
53 9 45 -21 28 -44 -48 -62 -76 -19 -96 -38 -97 -91 0 -69 74 -106 143 -70 32
16 39 17 44 5 3 -8 19 -14 37 -14 l33 0 -4 108 c-2 59 -6 117 -9 129 -9 47
-96 73 -171 52z m100 -183 c-7 -37 -37 -60 -68 -52 -21 5 -26 12 -23 34 2 21
11 29 43 38 48 14 54 12 48 -20z"/>
<path d="M6185 1028 c-21 -16 -25 -17 -25 -4 0 12 -10 16 -35 16 l-35 0 0
-146 0 -145 38 3 37 3 5 97 c3 56 10 102 17 109 7 7 25 12 42 11 25 0 31 4 36
29 4 17 5 33 2 35 -14 14 -60 9 -82 -8z"/>
<path d="M6373 1039 c-95 -27 -113 -219 -27 -276 30 -20 114 -22 147 -4 38 20
63 61 46 72 -22 14 -61 10 -74 -7 -16 -22 -65 -21 -82 2 -27 37 -17 43 80 46
l92 3 -2 37 c-6 99 -83 153 -180 127z m95 -77 c25 -32 14 -42 -44 -42 -52 0
-55 2 -52 22 3 25 43 49 67 41 9 -3 22 -13 29 -21z"/>
<path d="M4370 930 c0 -127 12 -162 60 -179 36 -12 84 -5 101 15 15 18 29 18
29 -1 0 -10 11 -15 35 -15 l35 0 0 145 0 145 -34 0 -33 0 -5 -93 c-3 -51 -10
-102 -16 -114 -15 -27 -46 -34 -71 -16 -19 13 -21 24 -21 119 l0 104 -40 0
-40 0 0 -110z"/>
</g>
</svg>
