<svg width="21" height="20" viewBox="0 0 21 20" fill="none" xmlns="http://www.w3.org/2000/svg">
<path d="M2.13916 5L7.90001 8.26414C10.0238 9.46751 10.9212 9.46751 13.045 8.26414L18.8058 5" stroke="#CF909F" stroke-width="1.5" stroke-linejoin="round"/>
<path d="M2.1523 11.229C2.20678 13.7836 2.23402 15.061 3.17662 16.0071C4.11923 16.9533 5.4311 16.9863 8.05485 17.0522C9.67192 17.0928 11.2731 17.0928 12.8901 17.0522C15.5139 16.9863 16.8258 16.9533 17.7684 16.0071C18.711 15.061 18.7382 13.7836 18.7927 11.229C18.8102 10.4076 18.8102 9.59108 18.7927 8.76968C18.7382 6.21507 18.711 4.93776 17.7684 3.99157C16.8258 3.04537 15.5139 3.01241 12.8901 2.94649C11.2731 2.90586 9.67192 2.90586 8.05485 2.94648C5.4311 3.0124 4.11923 3.04536 3.17662 3.99155C2.23401 4.93775 2.20677 6.21505 2.1523 8.76966C2.13478 9.59107 2.13478 10.4076 2.1523 11.229Z" stroke="#CF909F" stroke-width="1.5" stroke-linejoin="round"/>
</svg>
