<svg width="101" height="100" viewBox="0 0 101 100" fill="none" xmlns="http://www.w3.org/2000/svg">
<circle cx="50.4727" cy="50" r="50" fill="#F8EFF1"/>
<path d="M41.3066 44.584L46.7003 47.7729C49.8449 49.6321 51.1017 49.6321 54.2463 47.7729L59.64 44.584" stroke="#B75A70" stroke-width="3" stroke-linecap="round" stroke-linejoin="round"/>
<path d="M32.1686 53.7056C32.2884 59.3258 32.3483 62.1358 34.4221 64.2175C36.4958 66.2991 39.3819 66.3716 45.1542 66.5166C48.7117 66.606 52.2343 66.606 55.7918 66.5166C61.5641 66.3716 64.4502 66.2991 66.5239 64.2175C68.5976 62.1358 68.6576 59.3258 68.7774 53.7056C68.816 51.8985 68.816 50.1021 68.7774 48.295C68.6576 42.6749 68.5976 39.8648 66.5239 37.7832C64.4502 35.7016 61.5641 35.6291 55.7918 35.484C52.2343 35.3946 48.7117 35.3946 45.1542 35.484C39.3819 35.629 36.4958 35.7016 34.4221 37.7832C32.3483 39.8648 32.2884 42.6749 32.1685 48.295C32.13 50.1021 32.13 51.8985 32.1686 53.7056Z" stroke="#B75A70" stroke-width="3" stroke-linejoin="round"/>
</svg>
