<svg width="48" height="48" viewBox="0 0 48 48" fill="none" xmlns="http://www.w3.org/2000/svg">
<circle cx="24" cy="24" r="24" fill="#FFEAEF"/>
<path fill-rule="evenodd" clip-rule="evenodd" d="M24 18.25C19.4437 18.25 15.75 21.9437 15.75 26.5C15.75 31.0563 19.4437 34.75 24 34.75C28.5563 34.75 32.25 31.0563 32.25 26.5C32.25 21.9437 28.5563 18.25 24 18.25ZM23.8929 22.75C21.8555 22.75 20.25 24.4549 20.25 26.5C20.25 28.5451 21.8555 30.25 23.8929 30.25H24.1071C26.1445 30.25 27.75 28.5451 27.75 26.5C27.75 24.4549 26.1445 22.75 24.1071 22.75H23.8929Z" fill="#E75679"/>
<path fill-rule="evenodd" clip-rule="evenodd" d="M30.4501 13.3571C30.9433 13.6056 31.1418 14.2068 30.8933 14.7001L28.0713 20.3023C27.8229 20.7955 27.2216 20.9939 26.7284 20.7455C26.2351 20.497 26.0367 19.8957 26.2852 19.4025L29.1071 13.8003C29.3556 13.3071 29.9568 13.1087 30.4501 13.3571ZM26.0161 13.3601C26.5077 13.6119 26.7021 14.2145 26.4503 14.706L23.8898 19.706C23.638 20.1976 23.0354 20.392 22.5439 20.1403C22.0523 19.8885 21.8579 19.286 22.1096 18.7944L22.9818 17.0912L21.5832 14.7656C21.2986 14.2923 21.4515 13.6779 21.9248 13.3933C22.3981 13.1086 23.0125 13.2616 23.2971 13.7348L24.0552 14.9953L24.6702 13.7944C24.9219 13.3028 25.5245 13.1084 26.0161 13.3601ZM17.5438 13.3605C18.0352 13.1084 18.6379 13.3024 18.89 13.7938L21.7114 19.2938C21.9635 19.7852 21.7695 20.3879 21.2781 20.64C20.7867 20.8921 20.184 20.6981 19.9319 20.2067L17.1105 14.7067C16.8584 14.2153 17.0524 13.6125 17.5438 13.3605Z" fill="#E75679"/>
</svg>
