<svg width="12" height="10" viewBox="0 0 12 10" fill="none" xmlns="http://www.w3.org/2000/svg">
<path d="M7.41667 5.00008C7.41667 5.7375 6.82076 6.33341 6.08333 6.33341C5.34591 6.33341 4.75 5.7375 4.75 5.00008C4.75 4.26266 5.34591 3.66675 6.08333 3.66675C6.82076 3.66675 7.41667 4.26266 7.41667 5.00008Z" stroke="#CF909F" stroke-width="0.75" stroke-linecap="round" stroke-linejoin="round"/>
<path d="M6.00001 9C7.80379 9 9.48493 7.99453 10.6551 6.25438C11.115 5.57282 11.115 4.4272 10.6551 3.74561C9.48493 2.00544 7.80379 1 6.00001 1C4.19621 1 2.51507 2.00544 1.34492 3.74561C0.885028 4.4272 0.885028 5.57282 1.34492 6.25438C2.51507 7.99453 4.19621 9 6.00001 9Z" stroke="#CF909F" stroke-width="0.75" stroke-linecap="round" stroke-linejoin="round"/>
</svg>
