<svg width="21" height="21" viewBox="0 0 21 21" fill="none" xmlns="http://www.w3.org/2000/svg">
<path d="M5.95397 13.4016C4.77499 14.1037 1.68379 15.5371 3.56654 17.3308C4.48625 18.207 5.51057 18.8337 6.79838 18.8337H14.1469C15.4347 18.8337 16.4591 18.207 17.3788 17.3308C19.2615 15.5371 16.1703 14.1037 14.9913 13.4016C12.2267 11.7554 8.71865 11.7554 5.95397 13.4016Z" stroke="#CF909F" stroke-width="1.5" stroke-linecap="round" stroke-linejoin="round"/>
<path d="M14.2227 5.91699C14.2227 7.98806 12.5437 9.66699 10.4727 9.66699C8.40159 9.66699 6.72266 7.98806 6.72266 5.91699C6.72266 3.84592 8.40159 2.16699 10.4727 2.16699C12.5437 2.16699 14.2227 3.84592 14.2227 5.91699Z" stroke="#CF909F" stroke-width="1.5"/>
</svg>
